<?xml version="1.0" encoding="UTF-8"?>
<svg version="1.1" xmlns="http://www.w3.org/2000/svg" width="570" height="570">
<path d="M0 0 C3.54697441 3.21420922 5.78104196 6.40473426 6.4375 11.1875 C5.85362863 16.27552197 3.9404439 18.80972429 0 22 C-2.66075666 23.34945186 -5.11634371 24.1547904 -8 25 C-8 24.34 -8 23.68 -8 23 C-6.35546875 21.8515625 -6.35546875 21.8515625 -4.1875 20.625 C0.17541213 18.06778702 0.17541213 18.06778702 3 14 C3 10.18173589 2.31733308 8.41649966 0 5.375 C-7.78430855 -0.7875776 -15.15755461 -2.13023296 -25 -1 C-36.55517228 1.49841563 -47.40516203 9.21460384 -54 19 C-65.88726131 38.80246595 -69.91974861 61.56155986 -64.4375 84.25 C-60.80212248 95.44951389 -55.75388629 105.89007776 -47 114 C-46.01 114.495 -46.01 114.495 -45 115 C-44.89977539 114.26064209 -44.79955078 113.52128418 -44.69628906 112.75952148 C-40.94054775 85.38987603 -37.62377718 64.04292974 -15 46 C20.97562726 18.71615866 78.1765799 -3.28770164 124.12109375 1.3125 C131.67484774 2.3687053 137.58865119 4.18563723 143.5 9.0625 C145.88041875 13.72415339 145.70787468 17.85896701 145 23 C143.16617582 28.64622886 140.79307539 34.02079274 138.375 39.4375 C132.94038804 51.74927919 128.58718766 64.0252099 125 77 C124.63174103 78.32573532 124.63174103 78.32573532 124.25604248 79.67825317 C122.45127194 86.20933902 120.71372249 92.75700482 119 99.3125 C118.73887421 100.30570251 118.47774841 101.29890503 118.20870972 102.32220459 C114.56849612 116.21412194 111.30162309 130.08475278 108.96289062 144.2590332 C106.72227687 157.32334763 102.61419706 167.87553714 92.125 176.3125 C84.29859062 180.53876107 76.82832024 181.56679985 68 182 C68.58265625 182.43828125 69.1653125 182.8765625 69.765625 183.328125 C88.8938345 198.12541914 103.61203373 216.31249384 107 241 C108.71720389 263.48831391 100.64394836 285.39539395 86.53613281 302.80664062 C83.62670051 306.18864217 80.56115322 309.39905243 77.41552734 312.56103516 C76.11791132 313.88013638 74.86315244 315.24104308 73.61328125 316.60546875 C58.79165205 332.4336602 36.10959489 347.11848365 14.08984375 349.40625 C4.84343503 349.63959785 -0.90597469 347.53102299 -7.734375 341.328125 C-18.39278582 330.37568906 -27.62126427 316.86681679 -34 303 C-34.88300781 303.02320313 -35.76601563 303.04640625 -36.67578125 303.0703125 C-56.9375 303.375 -56.9375 303.375 -65 298 C-70.73540494 292.13424495 -72.24106179 286.95164095 -72.22558594 278.9699707 C-72.21301758 278.09300537 -72.20044922 277.21604004 -72.1875 276.3125 C-72.18395508 275.3949292 -72.18041016 274.4773584 -72.17675781 273.53198242 C-72.12995503 268.07899046 -71.8561453 262.68152667 -71.43481445 257.24609375 C-70.88076033 249.95043789 -70.78072117 244.78209652 -74.1171875 238.0625 C-75.74434104 234.26100854 -75.16669624 231.95380393 -74 228 C-71.49226182 224.21600221 -68.77294368 221.51529579 -65 219 C-65 218.34 -65 217.68 -65 217 C-66.22795623 215.86829687 -67.50851257 214.79318994 -68.8125 213.75 C-73.21445309 209.98691444 -75.58431211 206.85043126 -76.4375 201 C-75.76733283 196.40456798 -73.31020158 193.40056031 -70.1875 190.0625 C-68.77745274 187.61347054 -68.51467644 185.78281062 -69.01171875 182.9921875 C-70.89100703 179.20389887 -74.46162795 176.8542795 -77.75 174.30859375 C-80.52125874 171.46516681 -81 169.94792805 -81 166 C-78.98646917 160.99014354 -74.68515899 157.71875845 -70.75 154.1875 C-62.62601391 146.73994905 -55.90534414 139.3447204 -50 130 C-51.03447266 129.16082031 -51.03447266 129.16082031 -52.08984375 128.3046875 C-66.34964315 116.13789021 -74.30755423 100.66103698 -77 82 C-78.78196603 58.29022492 -75.93267155 34.65034673 -60.9375 15.375 C-59.64569953 13.89829966 -58.33472327 12.43802161 -57 11 C-56.45988281 10.36964844 -55.91976563 9.73929688 -55.36328125 9.08984375 C-48.47293714 1.49878668 -38.86840745 -3.49310617 -29 -6 C-28.05125 -6.2475 -27.1025 -6.495 -26.125 -6.75 C-16.19754329 -7.54419654 -8.39879187 -5.43598936 0 0 Z " fill="#F26F21" transform="translate(366,126)"/>
<path d="M0 0 C4.63108118 2.46006968 8.82518088 5.32314658 12.94140625 8.5625 C13.76898438 9.18382812 14.5965625 9.80515625 15.44921875 10.4453125 C29.76118902 22.60375746 36.5929083 42.81668658 38.69140625 60.9375 C38.79614056 62.47786076 38.88033516 64.01979106 38.94140625 65.5625 C38.98136719 66.32175781 39.02132812 67.08101563 39.0625 67.86328125 C39.60512229 87.3657647 34.46726899 108.28755234 21.25390625 123 C20.50753906 123.78246094 19.76117188 124.56492188 18.9921875 125.37109375 C17.14091351 127.34931224 15.51918339 129.36362963 13.94140625 131.5625 C20.924356 143.83183777 30.30337623 153.60108267 40.98046875 162.7578125 C43.60944363 165.17730731 44.8500746 166.86229069 45.31640625 170.4375 C44.84229117 174.38845899 43.73917242 175.76473383 40.94140625 178.5625 C38.95372231 179.91412508 36.95477155 181.24943567 34.94140625 182.5625 C32.76749761 185.82336296 32.43799492 186.78119441 32.94140625 190.5625 C34.4508763 192.80817302 34.4508763 192.80817302 36.44140625 194.875 C38.87045568 197.84110092 40.47238916 199.8594324 40.62890625 203.75 C39.37097354 210.72580867 35.00608147 214.93823132 29.94140625 219.5625 C29.28140625 219.5625 28.62140625 219.5625 27.94140625 219.5625 C28.66328125 220.26375 29.38515625 220.965 30.12890625 221.6875 C38.69587054 230.25446429 38.69587054 230.25446429 39.25390625 235.5 C39.23960207 238.96876378 38.22391371 241.51049962 36.87890625 244.6875 C34.84631091 250.00077554 34.91891361 253.77475095 35.56640625 259.359375 C36.17420461 265.18112989 36.15077718 271.02725825 36.19140625 276.875 C36.21235352 277.99656494 36.23330078 279.11812988 36.25488281 280.27368164 C36.28786593 287.65255517 36.08158946 294.24287775 30.75390625 299.875 C20.71982817 305.89544685 9.35119036 306.5008417 -2.05859375 304.5625 C-2.29320312 305.39265625 -2.5278125 306.2228125 -2.76953125 307.078125 C-4.29122465 311.19130836 -6.33548985 314.62658957 -8.68359375 318.3125 C-9.13017334 319.01842285 -9.57675293 319.7243457 -10.03686523 320.45166016 C-13.68688824 326.14046406 -17.62972493 331.45160265 -22.05859375 336.5625 C-22.81269531 337.449375 -23.56679687 338.33625 -24.34375 339.25 C-34.63828952 351.07411217 -34.63828952 351.07411217 -42.703125 351.80078125 C-70.32998467 352.44801964 -94.09504605 333.99494575 -113.18359375 315.8125 C-130.24158431 298.28375321 -142.03596807 276.23817508 -143.30859375 251.5625 C-142.92297218 229.15788693 -132.41103945 211.26845596 -117.05859375 195.5625 C-112.91475406 191.62344308 -108.82227309 187.73828623 -104.05859375 184.5625 C-105.08597656 184.48773438 -106.11335938 184.41296875 -107.171875 184.3359375 C-118.20431276 183.36150561 -127.04192828 181.10228427 -134.99609375 172.8125 C-141.20533038 164.75194486 -142.94222812 155.24822766 -144.78005981 145.44934082 C-148.27258266 126.95531905 -152.99418927 108.84320832 -157.94091797 90.69384766 C-158.90693128 87.14053499 -159.83655675 83.57895503 -160.75 80.01171875 C-165.16437936 62.913688 -171.47388988 46.70667598 -178.7109375 30.6171875 C-180.98246752 25.46838612 -181.99791199 21.15190853 -181.05859375 15.5625 C-178.24237033 9.85213394 -173.44916565 7.30451762 -167.625 5.2734375 C-163.74520292 4.19866875 -160.0752385 3.72183797 -156.05859375 3.5625 C-154.84236328 3.48515625 -154.84236328 3.48515625 -153.6015625 3.40625 C-105.46676743 1.75355317 -46.05060811 24.42182224 -10.80859375 57.25 C4.40052068 73.26473365 6.8808872 94.37298317 8.94140625 115.5625 C22.68143801 102.072287 27.63925726 84.7264861 28.12890625 65.875 C27.8519853 45.99822927 21.99560066 27.61088142 7.94921875 13.3046875 C-0.95877024 4.80612676 -11.44278471 0.9200187 -23.625 1.1171875 C-29.372883 1.86264673 -34.46861536 4.02165953 -39.05859375 7.5625 C-41.7190233 11.82314869 -41.7190233 11.82314869 -41.55859375 16.6875 C-38.99168466 21.60740908 -34.76744977 23.87172513 -30.05859375 26.5625 C-32.05859375 27.5625 -32.05859375 27.5625 -33.86328125 26.9609375 C-39.03868527 24.40253023 -42.40672429 21.86623892 -45.05859375 16.5625 C-45.47211495 12.92351342 -45.21377026 10.88634663 -43.62109375 7.5625 C-32.44856974 -5.51752811 -15.07934922 -6.64321768 0 0 Z " fill="#F26F21" transform="translate(237.05859375,123.4375)"/>
<path d="M0 0 C2.38041875 4.66165339 2.20787468 8.79646701 1.5 13.9375 C-0.33382418 19.58372886 -2.70692461 24.95829274 -5.125 30.375 C-10.55961196 42.68677919 -14.91281234 54.9627099 -18.5 67.9375 C-18.86825897 69.26323532 -18.86825897 69.26323532 -19.24395752 70.61575317 C-21.04872806 77.14683902 -22.78627751 83.69450482 -24.5 90.25 C-24.76112579 91.24320251 -25.02225159 92.23640503 -25.29129028 93.25970459 C-28.93150388 107.15162194 -32.19837691 121.02225278 -34.53710938 135.1965332 C-36.77772313 148.26084763 -40.88580294 158.81303714 -51.375 167.25 C-59.20140938 171.47626107 -66.67167976 172.50429985 -75.5 172.9375 C-74.91734375 173.37578125 -74.3346875 173.8140625 -73.734375 174.265625 C-54.6061655 189.06291914 -39.88796627 207.24999384 -36.5 231.9375 C-34.78279611 254.42581391 -42.85605164 276.33289395 -56.96386719 293.74414062 C-59.87329949 297.12614217 -62.93884678 300.33655243 -66.08447266 303.49853516 C-67.38208868 304.81763638 -68.63684756 306.17854308 -69.88671875 307.54296875 C-84.70834795 323.3711602 -107.39040511 338.05598365 -129.41015625 340.34375 C-138.65656497 340.57709785 -144.40597469 338.46852299 -151.234375 332.265625 C-162.46140326 320.72888562 -171.8083606 306.53132662 -178.5 291.9375 C-177.283125 292.22625 -176.06625 292.515 -174.8125 292.8125 C-149.94940488 298.2091408 -125.89421274 297.27496952 -103.5 283.9375 C-99.99231096 281.45488903 -96.73019957 278.76923746 -93.5 275.9375 C-92.79875 275.34324219 -92.0975 274.74898438 -91.375 274.13671875 C-80.40543267 264.13127354 -73.20279582 248.37144737 -72.296875 233.6328125 C-72.00768761 211.60637319 -78.21764844 191.73076922 -93.74609375 175.45703125 C-96.60250671 172.55037356 -99.52945027 169.72710254 -102.5 166.9375 C-99.67109002 164.05484561 -96.83317187 161.34228243 -93.6875 158.8125 C-84.86455445 151.10701637 -78.41616115 141.28792712 -77.125 129.51953125 C-76.88058295 122.51545509 -77.7248276 116.86621089 -80.52734375 110.4375 C-85.13324578 98.59903694 -83.33852593 83.33192989 -78.5 71.9375 C-76.64930224 68.17891999 -74.59336382 64.56497112 -72.5 60.9375 C-67.10662432 51.98283113 -67.10662432 51.98283113 -66.5 41.9375 C-69.80529924 35.05145992 -75.03477027 32.275166 -81.91015625 29.62109375 C-97.62188169 24.17535765 -113.97357728 22.55115718 -130.5 21.9375 C-130.5 21.2775 -130.5 20.6175 -130.5 19.9375 C-100.64929415 4.5041844 -31.11505811 -25.66992294 0 0 Z " fill="#005DA3" transform="translate(509.5,135.0625)"/>
<path d="M0 0 C35.77557612 -1.22834596 73.20091181 12.16684849 104.54296875 28.15625 C104.54296875 28.81625 104.54296875 29.47625 104.54296875 30.15625 C103.56408691 30.21570801 103.56408691 30.21570801 102.56542969 30.27636719 C70.47674752 31.0950487 70.47674752 31.0950487 43.23046875 45.75390625 C41.03308689 48.88212348 40.0762899 51.02624623 40.1328125 54.91015625 C41.3990744 61.84444759 45.92835427 68.23629263 49.66796875 74.09375 C56.92399881 86.19986331 59.21267762 101.51570383 56.03466797 115.37255859 C55.06148737 118.57999645 53.86887792 121.67586278 52.67578125 124.80859375 C49.66573739 133.70379234 51.32240557 141.53537411 54.9453125 149.9921875 C60.17478293 160.34884043 67.5076805 167.21413686 76.54296875 174.15625 C71.08219417 180.5971636 71.08219417 180.5971636 68.421875 183.35546875 C54.29461618 198.16827912 46.82510843 217.08698776 46.04296875 237.53125 C46.48354811 255.8248713 54.83647845 272.24145904 67.97460938 284.77197266 C85.51252738 300.25142395 107.92147043 305.47521792 130.75683594 304.39404297 C137.84335692 303.78921722 144.70488266 302.04727628 151.54296875 300.15625 C150.98740277 305.21586875 148.60263911 308.99738035 146.04296875 313.28125 C145.59445557 314.03607666 145.14594238 314.79090332 144.68383789 315.56860352 C140.83175036 321.9200388 136.48481398 327.60751149 131.54296875 333.15625 C130.76695312 334.06375 129.9909375 334.97125 129.19140625 335.90625 C118.96881076 347.6673632 118.96881076 347.6673632 110.8984375 348.39453125 C83.27157783 349.04176964 59.50651645 330.58869575 40.41796875 312.40625 C23.35997819 294.87750321 11.56559443 272.83192508 10.29296875 248.15625 C10.67859032 225.75163693 21.19052305 207.86220596 36.54296875 192.15625 C40.68680844 188.21719308 44.77928941 184.33203623 49.54296875 181.15625 C48.51558594 181.08148438 47.48820312 181.00671875 46.4296875 180.9296875 C35.39724974 179.95525561 26.55963422 177.69603427 18.60546875 169.40625 C12.39623212 161.34569486 10.65933438 151.84197766 8.82150269 142.04309082 C5.32897984 123.54906905 0.60737323 105.43695832 -4.33935547 87.28759766 C-5.30536878 83.73428499 -6.23499425 80.17270503 -7.1484375 76.60546875 C-11.56281686 59.507438 -17.87232738 43.30042598 -25.109375 27.2109375 C-27.38090502 22.06213612 -28.39634949 17.74565853 -27.45703125 12.15625 C-24.64080783 6.44588394 -19.84760315 3.89826762 -14.0234375 1.8671875 C-9.32769682 0.56638871 -4.8365702 0.30757203 0 0 Z " fill="#005DA3" transform="translate(83.45703125,126.84375)"/>
<path d="M0 0 C3.54697441 3.21420922 5.78104196 6.40473426 6.4375 11.1875 C5.85362863 16.27552197 3.9404439 18.80972429 0 22 C-2.66075666 23.34945186 -5.11634371 24.1547904 -8 25 C-8 24.34 -8 23.68 -8 23 C-6.35546875 21.8515625 -6.35546875 21.8515625 -4.1875 20.625 C0.17541213 18.06778702 0.17541213 18.06778702 3 14 C3 10.18173589 2.31733308 8.41649966 0 5.375 C-7.78430855 -0.7875776 -15.15755461 -2.13023296 -25 -1 C-36.55517228 1.49841563 -47.40516203 9.21460384 -54 19 C-65.88726131 38.80246595 -69.91974861 61.56155986 -64.4375 84.25 C-60.80212248 95.44951389 -55.75388629 105.89007776 -47 114 C-46.01 114.495 -46.01 114.495 -45 115 C-44.89977539 114.26064209 -44.79955078 113.52128418 -44.69628906 112.75952148 C-40.85089646 84.73654991 -37.32635823 64.94080391 -15 46 C-14.34 46.33 -13.68 46.66 -13 47 C-13.87011719 47.87398437 -13.87011719 47.87398437 -14.7578125 48.765625 C-25.2944741 59.82390351 -29.62128905 71.52726328 -31.8125 86.375 C-33.1833565 95.2502494 -34.70185216 104.07584959 -36.5 112.875 C-36.68925049 113.82938965 -36.87850098 114.7837793 -37.07348633 115.76708984 C-40.78110676 133.50215903 -49.90126893 148.85036574 -65.1953125 159.15234375 C-67.30791415 160.49332139 -69.4394877 161.80515182 -71.59375 163.078125 C-74.14619616 164.81415295 -74.14619616 164.81415295 -75.10546875 167.48828125 C-75.25337866 170.12516848 -75.25337866 170.12516848 -73.26953125 172.02734375 C-72.45871094 172.65769531 -71.64789063 173.28804687 -70.8125 173.9375 C-62.5186622 180.82319399 -62.5186622 180.82319399 -61.5 187.0625 C-62 190 -62 190 -64.0625 192.5625 C-66.26733714 194.79206568 -66.26733714 194.79206568 -65.90625 197.37890625 C-64.7426336 200.74436574 -63.14608198 202.08407722 -60.4375 204.375 C-59.08978516 205.53708984 -59.08978516 205.53708984 -57.71484375 206.72265625 C-56.81894531 207.47417969 -55.92304688 208.22570312 -55 209 C-53.49601882 210.26611925 -51.99557345 211.53646026 -50.5 212.8125 C-49.55640625 213.59560547 -49.55640625 213.59560547 -48.59375 214.39453125 C-46.86788377 216.13308768 -45.9699593 217.76424381 -45 220 C-45.65226562 220.42410156 -46.30453125 220.84820312 -46.9765625 221.28515625 C-54.582951 226.3897385 -60.4897242 231.36746634 -64 240 C-64.44830093 243.62539527 -64.44430619 247.22534758 -64.43359375 250.875 C-64.4388356 251.91769043 -64.44407745 252.96038086 -64.44947815 254.03466797 C-64.45588533 256.2333894 -64.4545783 258.43214517 -64.44604492 260.63085938 C-64.43752814 263.98890308 -64.46632704 267.34524884 -64.49804688 270.703125 C-64.49965891 272.84374949 -64.49908131 274.98437699 -64.49609375 277.125 C-64.50732773 278.12515137 -64.51856171 279.12530273 -64.53013611 280.15576172 C-64.4610054 287.0915421 -63.32310237 290.5124733 -58.5 295.57421875 C-53.20633693 299.50310931 -47.38568298 300.71028078 -41 302 C-41 302.33 -41 302.66 -41 303 C-59.862825 302.50295586 -59.862825 302.50295586 -66.58203125 296.61328125 C-72.09676183 290.55820243 -72.29826671 284.0413184 -72.1875 276.3125 C-72.18395508 275.3949292 -72.18041016 274.4773584 -72.17675781 273.53198242 C-72.12995503 268.07899046 -71.8561453 262.68152667 -71.43481445 257.24609375 C-70.88076033 249.95043789 -70.78072117 244.78209652 -74.1171875 238.0625 C-75.74434104 234.26100854 -75.16669624 231.95380393 -74 228 C-71.49226182 224.21600221 -68.77294368 221.51529579 -65 219 C-65 218.34 -65 217.68 -65 217 C-66.22795623 215.86829687 -67.50851257 214.79318994 -68.8125 213.75 C-73.21445309 209.98691444 -75.58431211 206.85043126 -76.4375 201 C-75.76733283 196.40456798 -73.31020158 193.40056031 -70.1875 190.0625 C-68.77745274 187.61347054 -68.51467644 185.78281062 -69.01171875 182.9921875 C-70.89100703 179.20389887 -74.46162795 176.8542795 -77.75 174.30859375 C-80.52125874 171.46516681 -81 169.94792805 -81 166 C-78.98646917 160.99014354 -74.68515899 157.71875845 -70.75 154.1875 C-62.62601391 146.73994905 -55.90534414 139.3447204 -50 130 C-51.03447266 129.16082031 -51.03447266 129.16082031 -52.08984375 128.3046875 C-66.34964315 116.13789021 -74.30755423 100.66103698 -77 82 C-78.78196603 58.29022492 -75.93267155 34.65034673 -60.9375 15.375 C-59.64569953 13.89829966 -58.33472327 12.43802161 -57 11 C-56.45988281 10.36964844 -55.91976563 9.73929688 -55.36328125 9.08984375 C-48.47293714 1.49878668 -38.86840745 -3.49310617 -29 -6 C-28.05125 -6.2475 -27.1025 -6.495 -26.125 -6.75 C-16.19754329 -7.54419654 -8.39879187 -5.43598936 0 0 Z " fill="#055DA1" transform="translate(366,126)"/>
<path d="M0 0 C4.63108118 2.46006968 8.82518088 5.32314658 12.94140625 8.5625 C13.76898438 9.18382812 14.5965625 9.80515625 15.44921875 10.4453125 C29.76118902 22.60375746 36.5929083 42.81668658 38.69140625 60.9375 C38.79614056 62.47786076 38.88033516 64.01979106 38.94140625 65.5625 C39.00134766 66.70138672 39.00134766 66.70138672 39.0625 67.86328125 C39.60512229 87.3657647 34.46726899 108.28755234 21.25390625 123 C20.50753906 123.78246094 19.76117188 124.56492188 18.9921875 125.37109375 C17.14091351 127.34931224 15.51918339 129.36362963 13.94140625 131.5625 C20.924356 143.83183777 30.30337623 153.60108267 40.98046875 162.7578125 C43.60944363 165.17730731 44.8500746 166.86229069 45.31640625 170.4375 C44.84229117 174.38845899 43.73917242 175.76473383 40.94140625 178.5625 C38.95372231 179.91412508 36.95477155 181.24943567 34.94140625 182.5625 C32.76749761 185.82336296 32.43799492 186.78119441 32.94140625 190.5625 C34.4508763 192.80817302 34.4508763 192.80817302 36.44140625 194.875 C38.87045568 197.84110092 40.47238916 199.8594324 40.62890625 203.75 C39.37097354 210.72580867 35.00608147 214.93823132 29.94140625 219.5625 C29.28140625 219.5625 28.62140625 219.5625 27.94140625 219.5625 C28.66328125 220.26375 29.38515625 220.965 30.12890625 221.6875 C38.69587054 230.25446429 38.69587054 230.25446429 39.25390625 235.5 C39.23960207 238.96876378 38.22391371 241.51049962 36.87890625 244.6875 C34.84631091 250.00077554 34.91891361 253.77475095 35.56640625 259.359375 C36.17420461 265.18112989 36.15077718 271.02725825 36.19140625 276.875 C36.22282715 278.55734741 36.22282715 278.55734741 36.25488281 280.27368164 C36.28786593 287.65255517 36.08158946 294.24287775 30.75390625 299.875 C22.43784377 304.86463749 14.38361987 305.20595808 4.94140625 305.5625 C4.94140625 305.2325 4.94140625 304.9025 4.94140625 304.5625 C5.89402344 304.30855469 6.84664062 304.05460937 7.828125 303.79296875 C9.08238281 303.44878906 10.33664063 303.10460937 11.62890625 302.75 C12.87027344 302.41355469 14.11164063 302.07710938 15.390625 301.73046875 C21.68363194 299.66049177 24.59466529 297.29977022 27.94140625 291.5625 C28.84887778 288.84008542 29.0764289 287.204969 29.10253906 284.40161133 C29.11214661 283.56676712 29.12175415 282.73192291 29.13165283 281.8717804 C29.13590271 280.97178818 29.14015259 280.07179596 29.14453125 279.14453125 C29.15023132 278.21331955 29.1559314 277.28210785 29.1618042 276.32267761 C29.17125287 274.3498142 29.17778765 272.37693501 29.18164062 270.40405273 C29.19131324 267.4038486 29.22232426 264.40433928 29.25390625 261.40429688 C29.26043996 259.48437905 29.26568898 257.56445634 29.26953125 255.64453125 C29.28805145 254.30972466 29.28805145 254.30972466 29.3069458 252.94795227 C29.27702718 244.46808191 26.92525457 236.79918698 20.94140625 230.5625 C18.41102235 228.59885823 15.82722725 226.7980379 13.1484375 225.04296875 C10.94140625 223.5625 10.94140625 223.5625 8.94140625 221.5625 C10.95590133 219.49347723 12.97758684 217.43239112 15.00390625 215.375 C15.56529297 214.79685547 16.12667969 214.21871094 16.70507812 213.62304688 C19.58240642 210.71283483 22.41847368 208.13484225 25.80078125 205.8203125 C29.12856677 203.85192597 29.12856677 203.85192597 30.12890625 200.625 C30.18834205 197.38818546 30.18834205 197.38818546 27.94140625 194.5625 C25.94140625 191.5625 25.94140625 191.5625 25.75390625 188.75 C28.03819395 182.6184909 32.43649527 177.13785455 37.94140625 173.5625 C38.60140625 173.5625 39.26140625 173.5625 39.94140625 173.5625 C38.6848834 168.47141603 37.16939367 166.49263656 32.81640625 163.625 C11.97392548 149.24151718 3.53227513 132.04247101 -0.99804688 107.61743164 C-1.20365234 106.4855542 -1.40925781 105.35367676 -1.62109375 104.1875 C-1.84087891 103.0008374 -2.06066406 101.8141748 -2.28710938 100.59155273 C-3.38074671 94.61144195 -4.35034891 88.6619441 -5.05859375 82.625 C-6.40661216 72.69418544 -10.53515803 64.66463178 -16.5078125 56.71875 C-17.94047718 54.72673261 -19.03287901 52.78572406 -20.05859375 50.5625 C-10.41735992 54.71972927 -3.12076345 65.00083347 1.08935547 74.33056641 C6.02189453 87.25127476 7.60964296 101.86720286 8.94140625 115.5625 C22.68143801 102.072287 27.63925726 84.7264861 28.12890625 65.875 C27.8519853 45.99822927 21.99560066 27.61088142 7.94921875 13.3046875 C-0.95877024 4.80612676 -11.44278471 0.9200187 -23.625 1.1171875 C-29.372883 1.86264673 -34.46861536 4.02165953 -39.05859375 7.5625 C-41.7190233 11.82314869 -41.7190233 11.82314869 -41.55859375 16.6875 C-38.99168466 21.60740908 -34.76744977 23.87172513 -30.05859375 26.5625 C-32.05859375 27.5625 -32.05859375 27.5625 -33.86328125 26.9609375 C-39.03868527 24.40253023 -42.40672429 21.86623892 -45.05859375 16.5625 C-45.47211495 12.92351342 -45.21377026 10.88634663 -43.62109375 7.5625 C-32.44856974 -5.51752811 -15.07934922 -6.64321768 0 0 Z " fill="#045DA1" transform="translate(237.05859375,123.4375)"/>
<path d="M0 0 C0.66 0.33 1.32 0.66 2 1 C-1.465 3.97 -1.465 3.97 -5 7 C-5 6.01 -5 5.02 -5 4 C-2.5 1.8125 -2.5 1.8125 0 0 Z " fill="#145E99" transform="translate(351,172)"/>
</svg>
